<svg width="32" height="33" viewBox="0 0 32 33" fill="none" xmlns="http://www.w3.org/2000/svg">
<path d="M24.582 10.9014L18.8075 7.48378C17.1125 6.48059 14.9937 7.73421 14.9937 9.74207V10.0927C14.9937 10.4094 15.1589 10.7025 15.4261 10.8602L16.5164 11.5054C16.8367 11.6954 17.236 11.4582 17.236 11.0797V10.2076C17.236 9.77153 17.6957 9.49901 18.0634 9.71702L23.0651 12.678C23.4328 12.896 23.4328 13.4411 23.0651 13.6576L18.0634 16.6185C17.6957 16.8366 17.236 16.5641 17.236 16.128V15.6639C17.236 13.6561 15.1172 12.401 13.4208 13.4057L7.64626 16.8233C5.95125 17.8265 5.95125 20.3367 7.64626 21.3399L13.4208 24.7575C15.1158 25.7607 17.236 24.5071 17.236 22.4992V22.1487C17.236 21.8319 17.0708 21.5402 16.8036 21.3811L15.7134 20.7345C15.393 20.5444 14.9937 20.7816 14.9937 21.1601V22.0323C14.9937 22.4683 14.534 22.7408 14.1663 22.5228L9.16458 19.5619C8.79685 19.3438 8.79685 18.7987 9.16458 18.5807L14.1663 15.6198C14.534 15.4018 14.9937 15.6743 14.9937 16.1103V16.5744C14.9937 18.5822 17.1125 19.8373 18.8075 18.8326L24.582 15.415C26.277 14.4148 26.277 11.9046 24.582 10.9014Z" fill="#3598CC"/>
</svg>
