<svg width="30" height="8" viewBox="0 0 30 8" fill="none" xmlns="http://www.w3.org/2000/svg">
<path fill-rule="evenodd" clip-rule="evenodd" d="M4.0954 0.5L0.914291 7.74674H4.72253L5.19464 6.59131H6.27378L6.74589 7.74674H10.9377V6.86488L11.3112 7.74674H13.4795L13.853 6.84624V7.74674H22.5708L23.6309 6.62132L24.6235 7.74674L29.1011 7.75606L25.91 4.1436L29.1011 0.5H24.6929L23.661 1.60463L22.6997 0.5H13.2159L12.4015 2.37045L11.568 0.5H7.76772V1.35186L7.34497 0.5H4.0954ZM4.83228 1.52905H6.68859L8.79862 6.44311V1.52905H10.8321L12.4619 5.0524L13.9639 1.52905H15.9873V6.72906H14.7561L14.746 2.65436L12.9511 6.72906H11.8498L10.0448 2.65436V6.72906H7.51202L7.03185 5.56329H4.43767L3.9585 6.72804H2.60146L4.83228 1.52905ZM22.1199 1.52905H17.1138V6.726H22.0424L23.631 5.00365L25.1621 6.726H26.7627L24.4363 4.14259L26.7627 1.52905H25.2316L23.6511 3.23163L22.1199 1.52905ZM5.73531 2.40886L4.88063 4.4856H6.58899L5.73531 2.40886ZM18.3499 3.55497V2.60571V2.6048H21.4736L22.8366 4.12291L21.4132 5.64932H18.3499V4.613H21.081V3.55497H18.3499Z" fill="white"/>
</svg>
