<svg width="25" height="11" viewBox="0 0 25 11" fill="none" xmlns="http://www.w3.org/2000/svg">
<path fill-rule="evenodd" clip-rule="evenodd" d="M4.44921 1.34316C4.16382 1.69506 3.70721 1.97261 3.2506 1.93296C3.19353 1.45715 3.41707 0.95161 3.67867 0.639363C3.96406 0.277553 4.46348 0.0198252 4.86777 0C4.91533 0.49563 4.72983 0.981348 4.44921 1.34316ZM4.86297 2.02723C4.46071 2.00311 4.09366 2.1533 3.79718 2.27461C3.60639 2.35267 3.44483 2.41878 3.32191 2.41878C3.18397 2.41878 3.01574 2.34914 2.82685 2.27095L2.82685 2.27095C2.57935 2.16849 2.29638 2.05135 1.99964 2.05697C1.31948 2.06688 0.686883 2.46834 0.339669 3.10771C-0.373786 4.38643 0.15417 6.27974 0.843844 7.32056C1.18155 7.83602 1.58584 8.40103 2.11855 8.38121C2.35291 8.37199 2.5215 8.29745 2.69597 8.2203C2.89683 8.13149 3.10549 8.03922 3.43131 8.03922C3.74582 8.03922 3.94536 8.12908 4.1369 8.21534C4.31903 8.29736 4.49393 8.37613 4.75358 8.3713C5.30532 8.36138 5.65253 7.85584 5.99023 7.34039C6.35466 6.78717 6.51481 6.24725 6.53912 6.16531L6.54197 6.15583C6.54139 6.15522 6.53689 6.15308 6.52894 6.14929C6.40712 6.09117 5.47596 5.64697 5.46703 4.45582C5.45807 3.45602 6.2056 2.94946 6.32327 2.86972C6.33044 2.86487 6.33526 2.8616 6.33745 2.85989C5.86181 2.12636 5.11982 2.04706 4.86297 2.02723ZM8.68238 8.31667V0.589797H11.4649C12.9013 0.589797 13.9049 1.62071 13.9049 3.12742C13.9049 4.63414 12.8822 5.67496 11.4268 5.67496H9.83342V8.31667H8.68238ZM9.83332 1.60088H11.1603C12.1592 1.60088 12.7299 2.15599 12.7299 3.13238C12.7299 4.10877 12.1592 4.66883 11.1556 4.66883H9.83332V1.60088ZM17.7051 7.38981C17.4007 7.99447 16.7301 8.37611 16.0071 8.37611C14.9369 8.37611 14.1902 7.71197 14.1902 6.71079C14.1902 5.71953 14.9132 5.14956 16.2497 5.0653L17.6861 4.97609V4.54985C17.6861 3.9204 17.2913 3.57842 16.5874 3.57842C16.0071 3.57842 15.5838 3.89066 15.4982 4.36647H14.4613C14.4946 3.36529 15.3983 2.63672 16.6207 2.63672C17.9382 2.63672 18.7943 3.35538 18.7943 4.47055V8.31663H17.7289V7.38981H17.7051ZM16.3163 7.45923C15.7027 7.45923 15.3127 7.15194 15.3127 6.68109C15.3127 6.19538 15.6885 5.91287 16.4067 5.86826L17.6861 5.784V6.22016C17.6861 6.94378 17.0964 7.45923 16.3163 7.45923ZM22.3284 8.61901C21.867 9.97208 21.3391 10.4181 20.2166 10.4181C20.131 10.4181 19.8456 10.4082 19.779 10.3884V9.46158C19.8503 9.47149 20.0263 9.4814 20.1167 9.4814C20.6256 9.4814 20.911 9.25837 21.087 8.67848L21.1916 8.3365L19.2415 2.7111H20.4449L21.8004 7.27585H21.8242L23.1798 2.7111H24.3499L22.3284 8.61901Z" fill="black"/>
</svg>
