<svg width="33" height="33" viewBox="0 0 33 33" fill="none" xmlns="http://www.w3.org/2000/svg">
<path fill-rule="evenodd" clip-rule="evenodd" d="M16.2 5.05115C13.8068 5.05115 11.8667 6.99125 11.8667 9.38448C11.8667 11.7777 13.8068 13.7178 16.2 13.7178C18.5932 13.7178 20.5333 11.7777 20.5333 9.38448C20.5333 6.99125 18.5932 5.05115 16.2 5.05115ZM9.86667 9.38448C9.86667 5.88668 12.7022 3.05115 16.2 3.05115C19.6978 3.05115 22.5333 5.88668 22.5333 9.38448C22.5333 12.8823 19.6978 15.7178 16.2 15.7178C12.7022 15.7178 9.86667 12.8823 9.86667 9.38448Z" fill="#3598CC"/>
<path fill-rule="evenodd" clip-rule="evenodd" d="M13.5333 21.0511C12.3841 21.0511 11.2819 21.5077 10.4692 22.3204C9.65656 23.133 9.20001 24.2352 9.20001 25.3845V28.0511C9.20001 28.6034 8.7523 29.0511 8.20001 29.0511C7.64773 29.0511 7.20001 28.6034 7.20001 28.0511V25.3845C7.20001 23.7048 7.86727 22.0939 9.055 20.9061C10.2427 19.7184 11.8536 19.0511 13.5333 19.0511H18.8667C20.5464 19.0511 22.1573 19.7184 23.345 20.9061C24.5327 22.0939 25.2 23.7048 25.2 25.3845V28.0511C25.2 28.6034 24.7523 29.0511 24.2 29.0511C23.6477 29.0511 23.2 28.6034 23.2 28.0511V25.3845C23.2 24.2352 22.7435 23.133 21.9308 22.3204C21.1181 21.5077 20.016 21.0511 18.8667 21.0511H13.5333Z" fill="#3598CC"/>
</svg>
