<svg width="32" height="33" viewBox="0 0 32 33" fill="none" xmlns="http://www.w3.org/2000/svg">
<path fill-rule="evenodd" clip-rule="evenodd" d="M11.3333 11.071C11.1492 11.071 11 11.2203 11 11.4044C11 11.5885 11.1492 11.7377 11.3333 11.7377C11.5174 11.7377 11.6667 11.5885 11.6667 11.4044C11.6667 11.2203 11.5174 11.071 11.3333 11.071ZM9 11.4044C9 10.1157 10.0447 9.07104 11.3333 9.07104C12.622 9.07104 13.6667 10.1157 13.6667 11.4044C13.6667 12.693 12.622 13.7377 11.3333 13.7377C10.0447 13.7377 9 12.693 9 11.4044Z" fill="#3598CC"/>
<path fill-rule="evenodd" clip-rule="evenodd" d="M5.79796 5.86889C6.73564 4.9312 8.00741 4.40442 9.3335 4.40442H14.4788C15.4595 4.4048 16.4004 4.79451 17.0939 5.48793L27.9166 16.3093C28.2602 16.6528 28.5328 17.0608 28.7188 17.5097C28.9047 17.9586 29.0005 18.4398 29.0005 18.9258C29.0005 19.4117 28.9047 19.8929 28.7188 20.3418C28.5328 20.7908 28.2602 21.1987 27.9165 21.5422L21.4713 27.9875C21.1277 28.3311 20.7198 28.6037 20.2709 28.7897C19.8219 28.9757 19.3408 29.0714 18.8548 29.0714C18.3689 29.0714 17.8877 28.9757 17.4388 28.7897C16.9899 28.6037 16.582 28.3311 16.2384 27.9875C16.2384 27.9875 16.2384 27.9875 16.2384 27.9875L5.41706 17.1662C4.72264 16.4718 4.3335 15.5307 4.3335 14.5498V9.40442C4.3335 8.07834 4.86028 6.80657 5.79796 5.86889ZM9.3335 6.40442C8.53785 6.40442 7.77479 6.72049 7.21218 7.2831C6.64957 7.84571 6.3335 8.60877 6.3335 9.40442V14.5498C6.3335 15.0008 6.51235 15.4331 6.83127 15.752L17.6526 26.5733C17.8105 26.7312 17.9979 26.8565 18.2042 26.9419C18.4105 27.0274 18.6316 27.0714 18.8548 27.0714C19.0781 27.0714 19.2992 27.0274 19.5055 26.9419C19.7117 26.8565 19.8991 26.7313 20.057 26.5734L26.5024 20.128C26.6603 19.9701 26.7856 19.7826 26.871 19.5764C26.9565 19.3701 27.0005 19.149 27.0005 18.9258C27.0005 18.7025 26.9565 18.4814 26.871 18.2751C26.7856 18.0689 26.6603 17.8814 26.5024 17.7236L15.6798 6.90225C15.3612 6.58374 14.9293 6.4047 14.4788 6.40442H9.3335Z" fill="#3598CC"/>
</svg>
