<svg width="16" height="14" viewBox="0 0 16 14" fill="none" xmlns="http://www.w3.org/2000/svg">
<g clip-path="url(#clip0_4865_9328)">
<path d="M14.3509 2.82805L10.02 0.264831C8.74878 -0.487561 7.15972 0.452653 7.15972 1.95855V2.2215C7.15972 2.45903 7.28359 2.67889 7.48397 2.79711L8.3017 3.28103C8.54195 3.42355 8.84143 3.24568 8.84143 2.96173V2.30767C8.84143 1.98064 9.18619 1.77625 9.46199 1.93976L13.2133 4.16048C13.4891 4.32399 13.4891 4.73279 13.2133 4.89519L9.46199 7.1159C9.18619 7.27945 8.84143 7.07505 8.84143 6.748V6.39995C8.84143 4.89409 7.25237 3.95277 5.98002 4.70627L1.64912 7.26947C0.377864 8.02188 0.377864 9.90452 1.64912 10.6569L5.98002 13.2201C7.25127 13.9725 8.84143 13.0323 8.84143 11.5264V11.2635C8.84143 11.0259 8.71756 10.8071 8.51711 10.6878L7.69945 10.2028C7.4592 10.0603 7.15972 10.2382 7.15972 10.5221V11.1762C7.15972 11.5032 6.81496 11.7076 6.53916 11.5441L2.78786 9.32339C2.51207 9.15984 2.51207 8.75104 2.78786 8.58754L6.53916 6.36684C6.81496 6.20334 7.15972 6.40774 7.15972 6.73473V7.08278C7.15972 8.58864 8.74878 9.52999 10.02 8.77648L14.3509 6.21326C15.6222 5.46308 15.6222 3.58044 14.3509 2.82805Z" fill="black"/>
</g>
<defs>
<clipPath id="clip0_4865_9328">
<rect width="14.6087" height="14" fill="white" transform="translate(0.695679)"/>
</clipPath>
</defs>
</svg>
