<svg width="33" height="33" viewBox="0 0 33 33" fill="none" xmlns="http://www.w3.org/2000/svg">
<path d="M16.6 11.5303V28.8636M16.6 11.5303V8.86365C16.6 8.33623 16.7564 7.82066 17.0494 7.38213C17.3424 6.9436 17.7589 6.6018 18.2462 6.39997C18.7334 6.19814 19.2696 6.14533 19.7869 6.24822C20.3042 6.35112 20.7793 6.60509 21.1523 6.97803C21.5252 7.35097 21.7792 7.82613 21.8821 8.34341C21.985 8.86069 21.9322 9.39687 21.7303 9.88414C21.5285 10.3714 21.1867 10.7879 20.7482 11.0809C20.3096 11.3739 19.7941 11.5303 19.2666 11.5303H16.6ZM16.6 11.5303V8.19698C16.6 7.53771 16.4045 6.89325 16.0382 6.34508C15.6719 5.79692 15.1513 5.36968 14.5423 5.11738C13.9332 4.86509 13.2629 4.79908 12.6163 4.9277C11.9697 5.05632 11.3758 5.37378 10.9096 5.83996C10.4434 6.30613 10.126 6.90008 9.99736 7.54668C9.86874 8.19328 9.93475 8.86351 10.187 9.47259C10.4393 10.0817 10.8666 10.6023 11.4147 10.9685C11.9629 11.3348 12.6074 11.5303 13.2666 11.5303H16.6ZM7.26664 16.8636H25.9333M7.26664 16.8636C6.5594 16.8636 5.88112 16.5827 5.38102 16.0826C4.88093 15.5825 4.59998 14.9042 4.59998 14.197C4.59998 13.4897 4.88093 12.8115 5.38102 12.3114C5.88112 11.8113 6.5594 11.5303 7.26664 11.5303H25.9333C26.6406 11.5303 27.3188 11.8113 27.8189 12.3114C28.319 12.8115 28.6 13.4897 28.6 14.197C28.6 14.9042 28.319 15.5825 27.8189 16.0826C27.3188 16.5827 26.6406 16.8636 25.9333 16.8636M7.26664 16.8636V26.197C7.26664 26.9042 7.54759 27.5825 8.04769 28.0826C8.54779 28.5827 9.22607 28.8636 9.93331 28.8636H23.2666C23.9739 28.8636 24.6522 28.5827 25.1523 28.0826C25.6524 27.5825 25.9333 26.9042 25.9333 26.197V16.8636" stroke="#3598CC" stroke-width="2" stroke-linecap="round" stroke-linejoin="round"/>
</svg>
