<svg width="16" height="16" viewBox="0 0 16 16" fill="none" xmlns="http://www.w3.org/2000/svg">
<g clip-path="url(#clip0_2794_17891)">
<path d="M11.334 7.33331H4.66732C3.93094 7.33331 3.33398 7.93027 3.33398 8.66665V12.6666C3.33398 13.403 3.93094 14 4.66732 14H11.334C12.0704 14 12.6673 13.403 12.6673 12.6666V8.66665C12.6673 7.93027 12.0704 7.33331 11.334 7.33331Z" stroke="#6B7280" stroke-linecap="round" stroke-linejoin="round"/>
<path d="M8.00065 11.3333C8.36884 11.3333 8.66732 11.0349 8.66732 10.6667C8.66732 10.2985 8.36884 10 8.00065 10C7.63246 10 7.33398 10.2985 7.33398 10.6667C7.33398 11.0349 7.63246 11.3333 8.00065 11.3333Z" stroke="#6B7280" stroke-linecap="round" stroke-linejoin="round"/>
<path d="M5.33398 7.33333V4.66667C5.33398 3.95942 5.61494 3.28115 6.11503 2.78105C6.61513 2.28095 7.29341 2 8.00065 2C8.7079 2 9.38617 2.28095 9.88627 2.78105C10.3864 3.28115 10.6673 3.95942 10.6673 4.66667V7.33333" stroke="#6B7280" stroke-linecap="round" stroke-linejoin="round"/>
</g>
<defs>
<clipPath id="clip0_2794_17891">
<rect width="16" height="16" fill="white"/>
</clipPath>
</defs>
</svg>
