<svg width="20" height="22" viewBox="0 0 20 22" fill="none" xmlns="http://www.w3.org/2000/svg">
<g filter="url(#filter0_d_4865_9288)">
<path fill-rule="evenodd" clip-rule="evenodd" d="M7.61421 13.4483L7.83493 11.9992L7.34324 11.9873H4.9953L6.62703 1.2937C6.63212 1.26132 6.64855 1.23126 6.67255 1.20987C6.69667 1.18849 6.72741 1.17676 6.75956 1.17676H10.7185C12.033 1.17676 12.94 1.45939 13.4135 2.01734C13.6355 2.27908 13.7769 2.55267 13.8453 2.85364C13.9171 3.16951 13.9183 3.54685 13.8483 4.00715L13.8432 4.04063V4.33561L14.0652 4.46563C14.2521 4.56815 14.4008 4.68546 14.5147 4.81975C14.7046 5.04361 14.8274 5.32808 14.8793 5.66521C14.933 6.012 14.9153 6.42478 14.8274 6.89205C14.7261 7.42946 14.5624 7.89759 14.3412 8.28055C14.1378 8.63344 13.8787 8.92622 13.5709 9.15302C13.2772 9.36857 12.9282 9.53219 12.5335 9.63691C12.1511 9.7398 11.7151 9.79173 11.2368 9.79173H10.9287C10.7085 9.79173 10.4945 9.87372 10.3265 10.0207C10.158 10.1708 10.0467 10.3758 10.0125 10.6L9.98922 10.7305L9.59919 13.2848L9.58158 13.3785C9.57685 13.4082 9.56881 13.423 9.55699 13.433C9.54647 13.4422 9.53133 13.4483 9.51655 13.4483H7.61421Z" fill="#28356A"/>
<path fill-rule="evenodd" clip-rule="evenodd" d="M14.2756 4.07458C14.2639 4.15267 14.2503 4.23246 14.2352 4.31445C13.7131 7.08509 11.9269 8.04225 9.64562 8.04225H8.48407C8.20506 8.04225 7.96991 8.25156 7.92652 8.53603L7.16338 13.5393C7.13513 13.7261 7.27439 13.8944 7.4567 13.8944H9.51688C9.76077 13.8944 9.96802 13.7112 10.0064 13.4626L10.0267 13.3544L10.4146 10.8102L10.4395 10.6707C10.4774 10.4211 10.6852 10.2378 10.9291 10.2378H11.2372C13.2331 10.2378 14.7957 9.40032 15.2524 6.97646C15.4431 5.96396 15.3444 5.11849 14.8396 4.52389C14.6868 4.34464 14.4973 4.1958 14.2756 4.07458Z" fill="#298FC2"/>
<path fill-rule="evenodd" clip-rule="evenodd" d="M13.7291 3.84968C13.6493 3.82561 13.5671 3.80386 13.4826 3.78419C13.3978 3.765 13.3109 3.74802 13.2214 3.73311C12.9082 3.68081 12.565 3.65601 12.1974 3.65601H9.0944C9.0179 3.65601 8.94531 3.67385 8.88041 3.70611C8.73724 3.77722 8.63096 3.91726 8.60518 4.0887L7.94502 8.41023L7.9261 8.53621C7.96949 8.25175 8.20464 8.04243 8.48365 8.04243H9.6452C11.9265 8.04243 13.7127 7.08479 14.2348 4.31463C14.2504 4.23264 14.2635 4.15285 14.2752 4.07477C14.1432 4.00231 14.0001 3.94035 13.8461 3.88756C13.808 3.87449 13.7688 3.8619 13.7291 3.84968Z" fill="#22284F"/>
<path fill-rule="evenodd" clip-rule="evenodd" d="M8.60546 4.08862C8.63124 3.91718 8.73752 3.77715 8.88069 3.70652C8.94607 3.67414 9.01819 3.6563 9.09468 3.6563H12.1977C12.5653 3.6563 12.9085 3.68123 13.2217 3.73353C13.3111 3.74831 13.398 3.76542 13.4829 3.7846C13.5673 3.80415 13.6496 3.82603 13.7294 3.84998C13.769 3.8622 13.8083 3.8749 13.8467 3.88749C14.0008 3.94028 14.1439 4.00272 14.276 4.07469C14.4313 3.05082 14.2747 2.3537 13.7391 1.72245C13.1486 1.0274 12.0829 0.72998 10.7192 0.72998H6.7601C6.48156 0.72998 6.24393 0.9393 6.2009 1.22426L4.5519 12.0279C4.51939 12.2416 4.67888 12.4344 4.88742 12.4344H7.3316L8.60546 4.08862Z" fill="#28356A"/>
</g>
<defs>
<filter id="filter0_d_4865_9288" x="0.547684" y="0.72998" width="18.7952" height="21.1644" filterUnits="userSpaceOnUse" color-interpolation-filters="sRGB">
<feFlood flood-opacity="0" result="BackgroundImageFix"/>
<feColorMatrix in="SourceAlpha" type="matrix" values="0 0 0 0 0 0 0 0 0 0 0 0 0 0 0 0 0 0 127 0" result="hardAlpha"/>
<feOffset dy="4"/>
<feGaussianBlur stdDeviation="2"/>
<feComposite in2="hardAlpha" operator="out"/>
<feColorMatrix type="matrix" values="0 0 0 0 0 0 0 0 0 0 0 0 0 0 0 0 0 0 0.25 0"/>
<feBlend mode="normal" in2="BackgroundImageFix" result="effect1_dropShadow_4865_9288"/>
<feBlend mode="normal" in="SourceGraphic" in2="effect1_dropShadow_4865_9288" result="shape"/>
</filter>
</defs>
</svg>
