<svg width="20" height="20" viewBox="0 0 20 20" fill="none" xmlns="http://www.w3.org/2000/svg">
<path d="M9.16536 4.16664H4.9987C4.55667 4.16664 4.13275 4.34223 3.82019 4.65479C3.50763 4.96736 3.33203 5.39128 3.33203 5.83331V15C3.33203 15.442 3.50763 15.8659 3.82019 16.1785C4.13275 16.491 4.55667 16.6666 4.9987 16.6666H14.1654C14.6074 16.6666 15.0313 16.491 15.3439 16.1785C15.6564 15.8659 15.832 15.442 15.832 15V10.8333M14.6537 2.98831C14.8074 2.82912 14.9913 2.70215 15.1947 2.6148C15.398 2.52746 15.6167 2.48148 15.838 2.47956C16.0593 2.47763 16.2788 2.5198 16.4836 2.6036C16.6884 2.6874 16.8745 2.81116 17.031 2.96765C17.1875 3.12414 17.3113 3.31022 17.3951 3.51505C17.4789 3.71988 17.521 3.93934 17.5191 4.16064C17.5172 4.38194 17.4712 4.60064 17.3839 4.80398C17.2965 5.00732 17.1695 5.19123 17.0104 5.34497L9.85536 12.5H7.4987V10.1433L14.6537 2.98831Z" stroke="#3598CC" stroke-width="2" stroke-linecap="round" stroke-linejoin="round"/>
</svg>
