<svg width="33" height="32" viewBox="0 0 33 32" fill="none" xmlns="http://www.w3.org/2000/svg">
<path fill-rule="evenodd" clip-rule="evenodd" d="M10.1332 15.6666C9.21268 15.6666 8.46649 16.4128 8.46649 17.3333V25.3333C8.46649 26.2538 9.21268 27 10.1332 27H23.4665C24.387 27 25.1332 26.2538 25.1332 25.3333V17.3333C25.1332 16.4128 24.387 15.6666 23.4665 15.6666H10.1332ZM6.46649 17.3333C6.46649 15.3082 8.10811 13.6666 10.1332 13.6666H23.4665C25.4915 13.6666 27.1332 15.3082 27.1332 17.3333V25.3333C27.1332 27.3583 25.4915 29 23.4665 29H10.1332C8.10811 29 6.46649 27.3583 6.46649 25.3333V17.3333Z" fill="#3598CC"/>
<path fill-rule="evenodd" clip-rule="evenodd" d="M16.7998 21C16.6157 21 16.4665 21.1492 16.4665 21.3333C16.4665 21.5174 16.6157 21.6667 16.7998 21.6667C16.9839 21.6667 17.1332 21.5174 17.1332 21.3333C17.1332 21.1492 16.9839 21 16.7998 21ZM14.4665 21.3333C14.4665 20.0447 15.5112 19 16.7998 19C18.0885 19 19.1332 20.0447 19.1332 21.3333C19.1332 22.622 18.0885 23.6667 16.7998 23.6667C15.5112 23.6667 14.4665 22.622 14.4665 21.3333Z" fill="#3598CC"/>
<path fill-rule="evenodd" clip-rule="evenodd" d="M16.7998 5C15.6506 5 14.5484 5.45655 13.7357 6.2692C12.923 7.08186 12.4665 8.18406 12.4665 9.33333V14.6667C12.4665 15.219 12.0188 15.6667 11.4665 15.6667C10.9142 15.6667 10.4665 15.219 10.4665 14.6667V9.33333C10.4665 7.65363 11.1338 6.04272 12.3215 4.85499C13.5092 3.66726 15.1201 3 16.7998 3C18.4795 3 20.0904 3.66726 21.2782 4.85499C22.4659 6.04272 23.1332 7.65363 23.1332 9.33333V14.6667C23.1332 15.219 22.6854 15.6667 22.1332 15.6667C21.5809 15.6667 21.1332 15.219 21.1332 14.6667V9.33333C21.1332 8.18406 20.6766 7.08186 19.864 6.2692C19.0513 5.45655 17.9491 5 16.7998 5Z" fill="#3598CC"/>
</svg>
