<svg width="17" height="17" viewBox="0 0 17 17" fill="none" xmlns="http://www.w3.org/2000/svg">
<g clip-path="url(#clip0_2794_10638)">
<path d="M8.72179 12.6516L4.57479 14.815L5.36697 10.233L2.00745 6.98829L6.64359 6.32162L8.71709 2.15295L10.7906 6.32162L15.4267 6.98829L12.0672 10.233L12.8594 14.815L8.72179 12.6516Z" fill="#FDBC00"/>
<path fill-rule="evenodd" clip-rule="evenodd" d="M8.71714 1.40295C9.00487 1.40295 9.26764 1.56503 9.39498 1.82103L11.2925 5.63596L15.5352 6.24604C15.8201 6.28701 16.0568 6.48498 16.1457 6.75664C16.2346 7.0283 16.1603 7.32649 15.954 7.52572L12.8795 10.4951L13.6044 14.6882C13.6531 14.9697 13.5364 15.2542 13.3035 15.4219C13.0705 15.5897 12.7617 15.6116 12.507 15.4785L8.72145 13.4992L4.92661 15.4788C4.67194 15.6117 4.36333 15.5895 4.13055 15.4217C3.89777 15.2539 3.78119 14.9695 3.82984 14.6882L4.55477 10.4951L1.48026 7.52572C1.27398 7.32649 1.19965 7.0283 1.28857 6.75664C1.37748 6.48498 1.61419 6.28701 1.89908 6.24604L6.14176 5.63596L8.0393 1.82103C8.16664 1.56503 8.42942 1.40295 8.71714 1.40295ZM8.71714 3.84764L7.32148 6.65354C7.21133 6.87499 6.99838 7.02845 6.75206 7.06387L3.63374 7.51227L5.89427 9.69552C6.07268 9.86784 6.15413 10.1163 6.11204 10.3598L5.57883 13.4439L8.37008 11.9878C8.59052 11.8728 8.8539 11.8729 9.07424 11.9881L11.8552 13.4421L11.3222 10.3598C11.2802 10.1163 11.3616 9.86784 11.54 9.69552L13.8005 7.51227L10.6822 7.06387C10.4359 7.02845 10.223 6.87499 10.1128 6.65354L8.71714 3.84764Z" fill="#FDBC00"/>
</g>
<defs>
<clipPath id="clip0_2794_10638">
<rect width="16.1257" height="16" fill="white" transform="translate(0.658936 0.818237)"/>
</clipPath>
</defs>
</svg>
