<svg width="18" height="17" viewBox="0 0 18 17" fill="none" xmlns="http://www.w3.org/2000/svg">
<path d="M9.00463 12.6516L4.85763 14.815L5.64981 10.233L2.29028 6.98829L6.92642 6.32162L8.99992 2.15295L11.0734 6.32162L15.7096 6.98829L12.35 10.233L13.1422 14.815L9.00463 12.6516Z" fill="#D1D5DB"/>
<path fill-rule="evenodd" clip-rule="evenodd" d="M8.99998 1.40295C9.28771 1.40295 9.55048 1.56503 9.67782 1.82103L11.5754 5.63596L15.818 6.24604C16.1029 6.28701 16.3396 6.48498 16.4286 6.75664C16.5175 7.0283 16.4431 7.32649 16.2369 7.52572L13.1624 10.4951L13.8873 14.6882C13.936 14.9697 13.8193 15.2542 13.5863 15.4219C13.3533 15.5897 13.0445 15.6116 12.7899 15.4785L9.00428 13.4992L5.20945 15.4788C4.95477 15.6117 4.64616 15.5895 4.41338 15.4217C4.1806 15.2539 4.06403 14.9695 4.11268 14.6882L4.8376 10.4951L1.76309 7.52572C1.55681 7.32649 1.48249 7.0283 1.5714 6.75664C1.66032 6.48498 1.89703 6.28701 2.18192 6.24604L6.4246 5.63596L8.32214 1.82103C8.44948 1.56503 8.71225 1.40295 8.99998 1.40295ZM8.99998 3.84764L7.60432 6.65354C7.49417 6.87499 7.28121 7.02845 7.0349 7.06387L3.91657 7.51227L6.17711 9.69552C6.35552 9.86784 6.43697 10.1163 6.39487 10.3598L5.86166 13.4439L8.65292 11.9878C8.87336 11.8728 9.13674 11.8729 9.35707 11.9881L12.138 13.4421L11.6051 10.3598C11.563 10.1163 11.6444 9.86784 11.8229 9.69552L14.0834 7.51227L10.9651 7.06387C10.7187 7.02845 10.5058 6.87499 10.3956 6.65354L8.99998 3.84764Z" fill="#D1D5DB"/>
</svg>
