<svg width="30" height="24" viewBox="0 0 30 24" fill="none" xmlns="http://www.w3.org/2000/svg">
<path fill-rule="evenodd" clip-rule="evenodd" d="M0.864953 1.09435C1.30883 0.595166 2.04401 0.177416 2.71739 0.0419161C2.85489 0.0142286 8.31114 -0.00427178 14.8424 0.000853223L26.7174 0.0101034L27.1473 0.177166C27.6758 0.382478 28.1753 0.720041 28.5052 1.09492C28.8696 1.50892 29.2363 2.29598 29.3099 2.8226C29.3926 3.41317 29.3926 20.5445 29.3099 21.1351C29.2367 21.6587 28.874 22.4332 28.4999 22.865C28.1678 23.2483 27.6034 23.62 27.0778 23.8015L26.6549 23.9476H14.6549H2.65489L2.2477 23.7888C1.71952 23.5829 1.18895 23.2277 0.864953 22.8634C0.503203 22.4565 0.139766 21.673 0.0633281 21.1351C-0.0211094 20.5412 -0.0211094 3.41654 0.0633281 2.8226C0.139766 2.28473 0.503203 1.50123 0.864953 1.09435ZM27.8159 2.45242C27.6138 2.04167 27.2504 1.68973 26.8204 1.4881L26.4674 1.3226L14.8424 1.31335C8.44864 1.30823 3.10051 1.32742 2.95764 1.35598C2.3702 1.47329 1.83033 1.89567 1.55633 2.45242L1.40489 2.7601V11.9789V21.1976L1.55633 21.5053C1.75845 21.916 2.12183 22.268 2.55189 22.4696L2.90489 22.6351H14.6861H26.4674L26.8204 22.4696C27.2504 22.268 27.6138 21.916 27.8159 21.5053L27.9674 21.1976V11.9789V2.7601L27.8159 2.45242ZM2.80464 3.4476C2.93145 3.17367 3.17658 2.92304 3.46739 2.77004C3.75195 2.62029 6.84039 2.61873 7.05383 2.76829C7.42714 3.02973 7.42045 3.62592 7.0417 3.85685C6.85976 3.96779 6.71858 3.97842 5.42051 3.9786L3.99864 3.97885V5.45242V6.92598L3.81595 7.10867C3.61451 7.3101 3.32139 7.35029 3.02814 7.21667C2.71026 7.07185 2.68602 6.93167 2.68752 5.2476C2.6887 3.87242 2.70195 3.66942 2.80464 3.4476ZM22.409 3.91792C21.9841 3.75635 21.8943 3.15654 22.2474 2.83823L22.4381 2.66635H24.0646C25.8551 2.66635 25.944 2.68273 26.3234 3.08248C26.661 3.43817 26.6861 3.58923 26.6861 5.2641C26.6861 6.58798 26.6716 6.82798 26.5821 6.97948C26.3684 7.3411 25.8536 7.40598 25.5563 7.10867L25.3736 6.92598V5.45242V3.97885H23.9714C23.2003 3.97885 22.4971 3.95142 22.409 3.91792ZM14.7471 7.70173C14.7806 7.61354 14.9001 7.48379 15.0127 7.41342C15.2902 7.23985 15.5994 7.28804 15.8268 7.54017L15.9986 7.73085V9.48504C15.9986 10.4499 16.0223 11.2299 16.0511 11.2184C16.08 11.207 16.9093 10.3351 17.8939 9.28092C19.2239 7.85698 19.731 7.35392 19.8662 7.32423C20.2538 7.2391 20.6866 7.59135 20.6859 7.99135C20.6856 8.21292 20.5126 8.44129 19.6544 9.35385C19.2181 9.81792 18.5942 10.4849 18.268 10.8359L17.6751 11.4742L18.9903 13.3449C20.4868 15.4735 20.7591 15.844 20.6814 16.1136C20.6613 16.1835 20.6177 16.2466 20.5658 16.3318C20.3906 16.6191 20.0694 16.7114 19.7653 16.562C19.531 16.4469 19.4896 16.3914 17.2266 13.1642L16.7359 12.4644L16.3702 12.8622L16.0045 13.2601L16.0016 14.7435L15.9986 16.2269L15.8268 16.4175C15.5084 16.7707 14.9086 16.6809 14.7471 16.256C14.6648 16.0396 14.6648 7.9181 14.7471 7.70173ZM2.68614 17.0914L2.89864 16.8789C3.18689 16.5906 3.54583 16.5789 3.81595 16.849L3.99864 17.0317V18.5053V19.9789L5.42051 19.9791C6.71858 19.9793 6.85976 19.9899 7.0417 20.1009C7.3012 20.259 7.40495 20.5954 7.28376 20.8854C7.11726 21.284 7.08126 21.2914 5.29476 21.2914C3.51851 21.2914 3.42783 21.2745 3.04883 20.8752C2.71026 20.5185 2.68614 20.3712 2.68614 18.6621V17.0914ZM25.3736 17.0317L25.5563 16.849C25.7029 16.7024 25.7924 16.6667 26.0094 16.6684C26.298 16.6705 26.4101 16.7312 26.5796 16.9772C26.6729 17.1125 26.6861 17.3235 26.6861 18.6823C26.6861 20.3695 26.6614 20.5192 26.3234 20.8752C25.944 21.275 25.8551 21.2914 24.0646 21.2914H22.4381L22.2474 21.1195C21.8943 20.8012 21.9841 20.2014 22.409 20.0398C22.4971 20.0063 23.2003 19.9789 23.9714 19.9789H25.3736V18.5053V17.0317ZM8.35 16.7877C8.85782 17.0155 9.44257 17.1293 10.1043 17.1293C10.7598 17.1293 11.3399 17.0155 11.8447 16.7877C12.3525 16.56 12.7495 16.246 13.0357 15.8459C13.3219 15.4459 13.4666 14.9904 13.4697 14.4795C13.4666 14.0794 13.3789 13.7116 13.2065 13.3761C13.0373 13.0376 12.8095 12.756 12.5233 12.5313C12.2402 12.3036 11.9216 12.1589 11.5677 12.0974V12.042C12.0263 11.9281 12.3987 11.6757 12.6849 11.2849C12.9711 10.894 13.1157 10.4447 13.1188 9.93686C13.1157 9.45674 12.9834 9.02741 12.7218 8.64886C12.4602 8.26723 12.1017 7.96716 11.6462 7.74865C11.1938 7.52706 10.6798 7.41626 10.1043 7.41626C9.52259 7.41626 9.00401 7.52552 8.54851 7.74403C8.09302 7.96254 7.73447 8.26261 7.47287 8.64424C7.21435 9.02279 7.08663 9.45366 7.08971 9.93686C7.08663 10.4447 7.22666 10.894 7.50981 11.2849C7.79295 11.6757 8.16996 11.9281 8.64084 12.042V12.0974C8.28383 12.1589 7.96068 12.3036 7.67138 12.5313C7.38208 12.756 7.1528 13.0376 6.98353 13.3761C6.81733 13.7116 6.73578 14.0794 6.73885 14.4795C6.73578 14.9904 6.87735 15.4459 7.16357 15.8459C7.44979 16.246 7.84527 16.56 8.35 16.7877ZM11.1199 15.7675C10.8337 15.8967 10.4951 15.9614 10.1043 15.9614C9.71033 15.9614 9.36871 15.8967 9.07941 15.7675C8.79011 15.6351 8.56698 15.452 8.41002 15.2181C8.25614 14.9811 8.18073 14.7041 8.18381 14.3871C8.18073 14.0578 8.26229 13.767 8.42848 13.5146C8.59468 13.2623 8.82242 13.0638 9.11172 12.9191C9.40102 12.7745 9.73187 12.7021 10.1043 12.7021C10.4736 12.7021 10.8014 12.7745 11.0876 12.9191C11.3738 13.0638 11.6 13.2623 11.7662 13.5146C11.9355 13.767 12.0216 14.0578 12.0247 14.3871C12.0216 14.7041 11.9416 14.9811 11.7847 15.2181C11.6277 15.452 11.4061 15.6351 11.1199 15.7675ZM10.9398 11.3726C10.6967 11.4988 10.4182 11.5619 10.1043 11.5619C9.78419 11.5619 9.50105 11.4988 9.25483 11.3726C9.0117 11.2464 8.82088 11.071 8.68239 10.8463C8.5439 10.6216 8.47619 10.3585 8.47927 10.0569C8.47619 9.76143 8.54236 9.50291 8.67777 9.28132C8.81319 9.05973 9.00247 8.88892 9.2456 8.76889C9.49181 8.64578 9.77803 8.58423 10.1043 8.58423C10.4243 8.58423 10.7059 8.64578 10.9491 8.76889C11.1922 8.88892 11.3815 9.05973 11.5169 9.28132C11.6554 9.50291 11.7262 9.76143 11.7293 10.0569C11.7262 10.3585 11.6539 10.6216 11.5123 10.8463C11.3738 11.071 11.183 11.2464 10.9398 11.3726Z" fill="black"/>
</svg>
