<svg width="30" height="24" viewBox="0 0 30 24" fill="none" xmlns="http://www.w3.org/2000/svg">
<path fill-rule="evenodd" clip-rule="evenodd" d="M3.08946 0.0419161C2.41609 0.177416 1.6809 0.595166 1.23702 1.09435C0.875273 1.50123 0.511836 2.28473 0.435398 2.8226C0.350961 3.41654 0.350961 20.5412 0.435398 21.1351C0.511836 21.673 0.875273 22.4565 1.23702 22.8634C1.56102 23.2277 2.09159 23.5829 2.61977 23.7888L3.02696 23.9476H15.027H27.027L27.4498 23.8015C27.9755 23.62 28.5399 23.2483 28.872 22.865C29.2461 22.4332 29.6088 21.6587 29.682 21.1351C29.7646 20.5445 29.7646 3.41317 29.682 2.8226C29.6083 2.29598 29.2417 1.50892 28.8773 1.09492C28.5473 0.720041 28.0478 0.382478 27.5194 0.177166L27.0895 0.0101034L15.2145 0.000853223C8.68321 -0.00427178 3.22696 0.0142286 3.08946 0.0419161ZM27.1925 1.4881C27.6225 1.68973 27.9859 2.04167 28.188 2.45242L28.3395 2.7601V11.9789V21.1976L28.188 21.5053C27.9859 21.916 27.6225 22.268 27.1925 22.4696L26.8395 22.6351H15.0582H3.27696L2.92396 22.4696C2.4939 22.268 2.13052 21.916 1.9284 21.5053L1.77696 21.1976V11.9789V2.7601L1.9284 2.45242C2.2024 1.89567 2.74227 1.47329 3.32971 1.35598C3.47258 1.32742 8.82071 1.30823 15.2145 1.31335L26.8395 1.3226L27.1925 1.4881ZM3.83946 2.77004C3.54865 2.92304 3.30352 3.17367 3.17671 3.4476C3.07402 3.66942 3.06077 3.87242 3.05959 5.2476C3.05809 6.93167 3.08233 7.07185 3.40021 7.21667C3.69346 7.35029 3.98658 7.3101 4.18802 7.10867L4.37071 6.92598V5.45242V3.97885L5.79258 3.9786C7.09065 3.97842 7.23183 3.96779 7.41377 3.85685C7.79252 3.62592 7.79921 3.02973 7.4259 2.76829C7.21246 2.61873 4.12402 2.62029 3.83946 2.77004ZM22.6195 2.83823C22.2664 3.15654 22.3561 3.75635 22.7811 3.91792C22.8692 3.95142 23.5723 3.97885 24.3435 3.97885H25.7457V5.45242V6.92598L25.9284 7.10867C26.2257 7.40598 26.7405 7.3411 26.9541 6.97948C27.0436 6.82798 27.0582 6.58798 27.0582 5.2641C27.0582 3.58923 27.0331 3.43817 26.6955 3.08248C26.3161 2.68273 26.2272 2.66635 24.4367 2.66635H22.8102L22.6195 2.83823ZM12.152 7.35242C12.0832 7.3816 11.0637 8.37217 9.88633 9.55367C7.75446 11.693 7.74571 11.7029 7.74571 11.9644C7.74571 12.166 7.78796 12.2742 7.92802 12.431L8.11027 12.6351L9.92802 12.6534L11.7457 12.6718V14.4419C11.7457 16.1072 11.753 16.2212 11.8686 16.3682C12.1623 16.7416 12.6991 16.7234 12.9378 16.3318C13.0528 16.1431 13.0578 15.9665 13.058 11.9914C13.0582 7.39373 13.0726 7.55685 12.6498 7.38017C12.411 7.28042 12.3318 7.27598 12.152 7.35242ZM15.3848 7.41342C15.2722 7.48379 15.1526 7.61354 15.1191 7.70173C15.0369 7.9181 15.0369 16.0396 15.1191 16.256C15.2807 16.6809 15.8805 16.7707 16.1988 16.4175L16.3707 16.2269L16.3736 14.7435L16.3766 13.2601L16.7423 12.8622L17.108 12.4644L17.5987 13.1642C19.8616 16.3914 19.9031 16.4469 20.1373 16.562C20.4415 16.7114 20.7626 16.6191 20.9378 16.3318C21.1901 15.9179 21.2466 16.0251 19.3623 13.3449L18.0471 11.4742L18.6401 10.8359C18.9663 10.4849 19.5901 9.81792 20.0265 9.35385C20.8847 8.44129 21.0576 8.21292 21.058 7.99135C21.0586 7.59135 20.6258 7.2391 20.2383 7.32423C20.1031 7.35392 19.596 7.85698 18.266 9.28092C17.2813 10.3351 16.4521 11.207 16.4232 11.2184C16.3943 11.2299 16.3707 10.4499 16.3707 9.48504V7.73085L16.1988 7.54017C15.9715 7.28804 15.6623 7.23985 15.3848 7.41342ZM11.7457 10.4476V11.2914H10.8872H10.0287L10.8707 10.4476C11.3338 9.98354 11.7201 9.60385 11.7292 9.60385C11.7383 9.60385 11.7457 9.98354 11.7457 10.4476ZM3.27071 16.8789L3.05821 17.0914V18.6621C3.05821 20.3712 3.08234 20.5185 3.4209 20.8752C3.7999 21.2745 3.89058 21.2914 5.66683 21.2914C7.45333 21.2914 7.48933 21.284 7.65583 20.8854C7.77702 20.5954 7.67327 20.259 7.41377 20.1009C7.23183 19.9899 7.09065 19.9793 5.79258 19.9791L4.37071 19.9789V18.5053V17.0317L4.18802 16.849C3.9179 16.5789 3.55896 16.5906 3.27071 16.8789ZM25.9284 16.849L25.7457 17.0317V18.5053V19.9789H24.3435C23.5723 19.9789 22.8692 20.0063 22.7811 20.0398C22.3561 20.2014 22.2664 20.8012 22.6195 21.1195L22.8102 21.2914H24.4367C26.2272 21.2914 26.3161 21.275 26.6955 20.8752C27.0335 20.5192 27.0582 20.3695 27.0582 18.6823C27.0582 17.3235 27.045 17.1125 26.9517 16.9772C26.7821 16.7312 26.6701 16.6705 26.3815 16.6684C26.1645 16.6667 26.075 16.7024 25.9284 16.849Z" fill="black"/>
</svg>
